# xmcd CD database file
#
# Track frame offsets:
#	150
#	11723
#	22830
#	33862
#	44444
#	54412
#	64316
#	77258
#	88892
#	99503
#	108821
#	119403
#	129773
#	141007
#	150642
#	165050
#	176170
#	186781
#	197102
#	208015
#
# Disc length: 2889 seconds
#
# Revision: 0
# Processed by: cddbd v1.5.2PL0 Copyright (c) Steve Scherf et al.
# Submitted via: jetAudio 7
#
DISCID=fa0b4714
DTITLE=Pasty Cline - Let The Teardrops Fall
DYEAR=1900
DGENRE=Country
TTITLE0=Let The Teardrops Fall
TTITLE1=Don't Ever Leave Me Again
TTITLE2=A Stranger In My Arms
TTITLE3=I Don't Wanna
TTITLE4=Pick Me Up On Your Way Down
TTITLE5=Turn The Cards Slowly
TTITLE6=If I Could See The World
TTITLE7=Walking After Midnight
TTITLE8=Honky Tonk Merry Go Round
TTITLE9=Love, Love Me Honey Do
TTITLE10=Stop, Look And Listen
TTITLE11=I Love You Honey
TTITLE12=Cry Not For Me
TTITLE13=I'm Blue Again
TTITLE14=Then You'll Know
TTITLE15=Just Out Of Reach
TTITLE16=I Can See An Angel
TTITLE17=Too Many Secrets
TTITLE18=I Can't Forget You
TTITLE19=Try Again
EXTD=
EXTT0=
EXTT1=
EXTT2=
EXTT3=
EXTT4=
EXTT5=
EXTT6=
EXTT7=
EXTT8=
EXTT9=
EXTT10=
EXTT11=
EXTT12=
EXTT13=
EXTT14=
EXTT15=
EXTT16=
EXTT17=
EXTT18=
EXTT19=
PLAYORDER=
